<svg xmlns="http://www.w3.org/2000/svg" viewBox="0 0 35 35" width="35px" height="35px">
  <circle fill="#1D71B8" cx="17.5" cy="17.5" r="17.5"/>
  <path fill="#FFFFFF" d="M19.152,25.328 C19.472,25.328 19.632,25.168 19.632,24.848 L19.632,19.408 L25.104,19.408 C25.424,19.408 25.584,19.248 25.584,18.928 L25.584,16.368 C25.584,16.048 25.424,15.888 25.104,15.888 L19.632,15.888 L19.632,10.48 C19.632,10.16 19.472,10 19.152,10 L16.464,10 C16.144,10 15.984,10.16 15.984,10.48 L15.984,15.888 L10.48,15.888 C10.16,15.888 10,16.048 10,16.368 L10,18.928 C10,19.248 10.16,19.408 10.48,19.408 L15.984,19.408 L15.984,24.848 C15.984,25.168 16.144,25.328 16.464,25.328 L19.152,25.328 Z"/>
</svg>