<svg xmlns="http://www.w3.org/2000/svg" viewBox="0 0 12 12" width="12px" height="12px">
  <path fill="#1D71B8" d="M7.272,4.587375 C8.386875,5.70225 8.386875,7.516125 7.272,8.631 L5.022,10.881 C4.482,11.421 3.763875,11.718375 3,11.718375 C2.236125,11.718375 1.518,11.421 0.978,10.881 C-0.136875,9.766125 -0.136875,7.95225 0.978,6.837375 L2.006625,5.80875 C2.24475,5.570625 2.630625,5.570625 2.868375,5.80875 C3.106125,6.046875 3.1065,6.432375 2.868375,6.6705 L1.83975,7.699125 C1.2,8.338875 1.2,9.3795 1.83975,10.01925 C2.1495,10.329 2.561625,10.499625 3,10.499625 C3.438375,10.499625 3.850125,10.329 4.16025,10.01925 L6.41025,7.76925 C7.05,7.1295 7.05,6.088875 6.41025,5.449125 C6.172125,5.211 6.172125,4.8255 6.41025,4.587375 C6.648375,4.34925 7.033875,4.34925 7.272,4.587375 Z M9,1.46549439e-14 C9.763875,1.46549439e-14 10.481625,0.297375 11.022,0.837375 C12.136875,1.95225 12.136875,3.766125 11.022,4.881 L9.993375,5.909625 C9.75525,6.14775 9.36975,6.14775 9.131625,5.909625 C8.8935,5.6715 8.8935,5.286 9.131625,5.047875 L10.16025,4.01925 C10.8,3.3795 10.8,2.338875 10.16025,1.699125 C9.8505,1.389375 9.438375,1.21875 9,1.21875 C8.561625,1.21875 8.149875,1.389375 7.83975,1.699125 L5.58975,3.949125 C4.95,4.588875 4.95,5.6295 5.58975,6.26925 C5.827875,6.507375 5.827875,6.892875 5.58975,7.131 C5.470875,7.249875 5.314875,7.3095 5.158875,7.3095 C5.002875,7.3095 4.846875,7.249875 4.728,7.131 C3.613125,6.016125 3.613125,4.20225 4.728,3.087375 L6.978,0.837375 C7.518,0.297375 8.236125,1.46549439e-14 9,1.46549439e-14 Z"/>
</svg>