<svg xmlns="http://www.w3.org/2000/svg" viewBox="0 0 145.48 31.8" width="145.48" height="31.8">
  <path fill="#fff" d="M8.45,2.41c.41-.12.65.16.65.61V8.86h3.76c.45,0,.69.2.69.61v3.27c0,.4-.24.61-.69.61H9.1V24.49c0,1.76.61,2.08,2.41,2.08h1.67c.49,0,.7.17.7.61v3.47a.69.69,0,0,1-.66.78,17.19,17.19,0,0,1-3.46.37c-3.51,0-6.7-.13-6.7-5.27V13.35H.65c-.45,0-.65-.21-.65-.61V9.47c0-.41.2-.61.65-.61H3.06V4.33c0-.41.16-.57.57-.66ZM71.21,0a.54.54,0,0,1,.62.61V30.94c0,.45-.21.65-.62.65H66.4c-.41,0-.61-.2-.61-.65V.61A.54.54,0,0,1,66.4,0Zm10.9,0c.45,0,.61.2.61.65V8.78a44.65,44.65,0,0,1,5-.25c7.43,0,9.39,2.61,9.39,11.67s-2,11.6-10.61,11.6a56,56,0,0,1-9-.78.93.93,0,0,1-.86-1V.65c0-.45.16-.65.61-.65Zm.61,13.8V26.29a28.3,28.3,0,0,0,3.92.28c4.12,0,4.41-1.63,4.41-6.41,0-5.26-.53-6.36-4.65-6.36Zm38.69,6.36c0,9.31-1.92,11.64-10.41,11.64s-10.41-2.33-10.41-11.64,2-11.63,10.41-11.63S121.41,10.82,121.41,20.16Zm-14.73,0c0,5.15.61,6.41,4.32,6.41s4.37-1.26,4.37-6.41-.61-6.4-4.37-6.4S106.68,15,106.68,20.16ZM144.31,8.74c.49,0,.61.32.28.73l-7,10.16,7.76,11.19c.28.41.16.77-.33.77h-5.88a.77.77,0,0,1-.65-.41l-4.61-6.85-4.66,6.85a.67.67,0,0,1-.65.41h-5.84c-.49,0-.61-.36-.32-.77l7.75-11.19L123.08,9.47c-.33-.41-.16-.73.33-.73h5.83a.88.88,0,0,1,.74.36l3.88,5.8,3.87-5.8a.84.84,0,0,1,.74-.36Z"/>
  <path fill="#fff" d="M26.83,13.76h9.93V8.53H26.83c-8.43,0-10.38,2.29-10.38,11.63S18.4,31.79,26.83,31.8h9.93V26.57H26.83c-3.69,0-4.3-1.27-4.3-6.41S23.14,13.76,26.83,13.76Z"/>
  <path fill="#95c11f" d="M61.63,20.16c0-9.32-1.92-11.62-10.36-11.63H41.35v5.23h9.89c3.73,0,4.35,1.27,4.35,6.4s-.62,6.41-4.37,6.41H41.35V31.8h9.92C59.71,31.79,61.63,29.45,61.63,20.16Z"/>
</svg>